<?xml version="1.0" standalone="no"?>
<!DOCTYPE svg PUBLIC "-//W3C//DTD SVG 20010904//EN"
 "http://www.w3.org/TR/2001/REC-SVG-20010904/DTD/svg10.dtd">
<svg version="1.0" xmlns="http://www.w3.org/2000/svg"
 width="512.000000pt" height="512.000000pt" viewBox="0 0 512.000000 512.000000"
 preserveAspectRatio="xMidYMid meet">
<metadata>
Created by potrace 1.11, written by Peter Selinger 2001-2013
</metadata>
<g transform="translate(0.000000,512.000000) scale(0.100000,-0.100000)"
fill="#000000" stroke="none">
<path d="M1215 4698 c-67 -22 -114 -59 -163 -127 l-33 -46 -202 -1 c-220 -1
-257 -7 -350 -57 -63 -33 -146 -117 -178 -178 -51 -101 -49 -30 -49 -1800 0
-1618 1 -1648 20 -1704 28 -82 61 -134 118 -187 56 -53 128 -92 199 -109 35
-9 432 -12 1473 -14 1422 -2 1425 -2 1547 -24 146 -26 160 -29 195 -36 168
-37 309 28 380 173 18 37 43 82 55 101 46 68 59 138 62 329 1 97 4 184 6 192
2 8 7 29 10 45 19 109 67 385 71 410 3 17 7 37 9 45 2 8 6 31 9 50 5 32 31
179 40 225 2 11 7 43 11 70 5 28 9 52 10 55 0 3 4 27 9 53 4 27 9 59 12 70 6
31 45 248 49 272 2 11 6 36 9 55 3 19 8 46 11 60 2 13 7 42 11 64 3 22 7 43 9
46 1 3 6 25 9 50 3 25 8 56 11 70 3 14 9 48 14 75 10 48 16 86 26 150 3 17 7
41 10 55 3 14 10 54 16 90 6 36 17 97 24 135 7 39 16 88 19 110 4 22 8 51 11
65 63 331 64 359 18 459 -21 47 -102 126 -149 146 -22 9 -86 26 -144 36 -58
11 -114 21 -125 24 -11 2 -22 4 -25 4 -4 1 -12 18 -19 39 -46 127 -164 234
-301 272 -34 10 -234 13 -805 15 l-760 2 -135 27 c-74 14 -161 31 -195 36 -79
13 -110 18 -170 30 -46 9 -71 13 -150 26 -16 2 -52 9 -80 14 -49 9 -100 18
-141 25 -11 1 -45 8 -75 14 -103 21 -170 21 -234 -1z"/>
</g>
</svg>
